<?xml version="1.0" standalone="no"?><!DOCTYPE svg PUBLIC "-//W3C//DTD SVG 1.1//EN" "http://www.w3.org/Graphics/SVG/1.1/DTD/svg11.dtd"><svg t="1537336993609" class="icon" style="" viewBox="0 0 1024 1024" version="1.1" xmlns="http://www.w3.org/2000/svg" p-id="962" xmlns:xlink="http://www.w3.org/1999/xlink" width="200" height="200"><defs><style type="text/css"></style></defs><path d="M412.8 544a208 208 0 1 0 0-416 208 208 0 0 0 0 416z m345.6 214.4v-99.2c0-8.8-7.2-16-16.064-16h-6.272a16.16 16.16 0 0 0-16.064 16v99.2h-99.2c-8.8 0-16 7.2-16 16.064v6.272c0 8.64 7.168 16.064 16 16.064h99.2V896c0 8.8 7.2 16 16.064 16h6.272c8.64 0 16.064-7.168 16.064-16v-99.2h99.2c8.8 0 16-7.2 16-16.064v-6.272a16.16 16.16 0 0 0-16-16.064h-99.2z m-47.36-269.408A176 176 0 0 0 624 160v32a144 144 0 1 1 0 288v32c102.912 0 150.592 28.576 193.472 93.76 2.976 4.544 13.44 21.12 17.024 26.784l27.008-17.088c6.4 10.048-12.896-20.608-17.28-27.296-34.336-52.16-73.056-84.608-133.152-99.168zM412.8 512a176 176 0 1 1 0-352 176 176 0 0 1 0 352z m268.16 120.48c6.72 8.96-13.6-18.368-18.24-24.32C611.52 542.4 551.488 512 432 512 264.32 512 128 639.264 128 796.8h32c0-139.36 121.536-252.8 272-252.8 109.472 0 160.224 25.728 205.44 83.808 3.136 4.032 14.176 18.784 17.92 23.84l25.6-19.2z" fill="#bdbdbd" p-id="963"></path></svg>