<?xml version="1.0" standalone="no"?><!DOCTYPE svg PUBLIC "-//W3C//DTD SVG 1.1//EN" "http://www.w3.org/Graphics/SVG/1.1/DTD/svg11.dtd"><svg t="1537337044335" class="icon" style="" viewBox="0 0 1024 1024" version="1.1" xmlns="http://www.w3.org/2000/svg" p-id="1075" xmlns:xlink="http://www.w3.org/1999/xlink" width="200" height="200"><defs><style type="text/css"></style></defs><path d="M568.82 512.797c55.648-42.051 92.172-108.582 92.172-184.227 0-127.363-102.102-230.605-228.063-230.605-125.957 0-228.055 103.242-228.055 230.605 0 74.352 35.395 139.766 89.418 181.938-115.941 52.43-197.738 168.023-201.879 303.93 0 20.984 17.008 38 37.996 38 20.984 0 38-17.016 38-38 9.43-135.813 118.422-250.391 253.746-256.359l20.543 0.102c85.426 3.242 160.488 46.523 206.816 112.633L736 670.814C700.609 599.781 640.586 545.422 568.82 512.797zM436.137 480.664l-8.172-0.098c-81.676-2.438-147.41-69.344-147.41-152.512 0-84.723 67.93-153.406 151.719-153.406s151.695 68.684 151.695 153.406C583.969 411.383 518.031 478.461 436.137 480.664zM677.109 181.074c64.891 17.398 133.836 75.891 133.836 146.98 0 53.93-37.148 108.469-79.039 135.098l-0.047 0.043c-19.789 7.629-33.984 26.672-33.984 49.359l-0.078 4.938c0 28.195 22.461 50.719 49.93 52.492 0 0 1.398 0.203 1.539 0.391 44.219 20.922 86.281 56.875 119.094 100.438l94.266 0C928.289 603 871.797 549.484 803.422 516.875l-0.297-3.063c52.531-43.242 84.813-111.18 84.813-185.242 0-121.105-92.688-218.813-210.055-228.258l-2.695 0.094c-21.461 1.16-38.813 18.191-38.813 39.938C636.375 162.836 654.609 181.074 677.109 181.074zM907.852 814.945l-72.867 0 0-72.922c0-20.125-16.313-36.453-36.422-36.453s-36.438 16.328-36.438 36.453l0 72.922-72.852 0c-20.109 0-36.422 16.297-36.422 36.445 0 20.133 16.313 36.461 36.422 36.461l72.852 0 0 72.922c0 20.109 16.328 36.445 36.438 36.445s36.422-16.336 36.422-36.445l0-72.922 72.867 0c20.109 0 36.422-16.328 36.422-36.461C944.273 831.242 927.961 814.945 907.852 814.945z" p-id="1076" fill="#8a8a8a"></path></svg>