<?xml version="1.0" standalone="no"?><!DOCTYPE svg PUBLIC "-//W3C//DTD SVG 1.1//EN" "http://www.w3.org/Graphics/SVG/1.1/DTD/svg11.dtd"><svg t="1537349325828" class="icon" style="" viewBox="0 0 1024 1024" version="1.1" xmlns="http://www.w3.org/2000/svg" p-id="1653" xmlns:xlink="http://www.w3.org/1999/xlink" width="16" height="16"><defs><style type="text/css"></style></defs><path d="M283.7 177.2h334.7c4.1 0 7.7 1.5 10.7 4.5s4.5 6.7 4.5 11.2v410.3h91.3c12.7 0 21.9 5.9 27.6 17.6 5.7 11.7 4.3 22.7-4.3 32.8L596 836.3c-5.7 7-13.5 10.5-23.3 10.5s-17.6-3.5-23.3-10.5L397.3 653.8c-8.2-9.8-9.7-20.8-4.3-32.8 5.7-11.7 14.9-17.6 27.6-17.6h91.3V299H359.7c-4.4 0-8.4-1.7-11.9-5.2l-76.1-91.3c-4.1-4.4-4.8-9.8-1.9-16.2 2.9-6 7.5-9.1 13.9-9.1z" p-id="1654"></path></svg>