<?xml version="1.0" standalone="no"?><!DOCTYPE svg PUBLIC "-//W3C//DTD SVG 1.1//EN" "http://www.w3.org/Graphics/SVG/1.1/DTD/svg11.dtd"><svg t="1537337201415" class="icon" style="" viewBox="0 0 1024 1024" version="1.1" xmlns="http://www.w3.org/2000/svg" p-id="4131" xmlns:xlink="http://www.w3.org/1999/xlink" width="200" height="200"><defs><style type="text/css"></style></defs><path d="M658.115 630.062l-144.981-206.75c-9.466-13.499-29.679-13.499-39.143 0l-144.983 206.75c-7.039 10.038-20.687 13.084-31.416 7.009l-146.265-82.816c-19.383-10.978-42.022 8.083-34.102 28.713l88.624 230.889c3.505 9.135 12.366 15.173 22.259 15.173H759.016c9.892 0 18.754-6.038 22.259-15.173L869.9 582.968c7.92-20.63-14.719-39.691-34.102-28.713l-146.267 82.816c-10.726 6.075-24.377 3.028-31.416-7.009zM551.333 315.232c0 31.498-25.864 57.033-57.771 57.033-31.905 0-57.771-25.535-57.771-57.033 0-31.5 25.866-57.035 57.771-57.035 31.908-0.001 57.771 25.535 57.771 57.035zM984 470.561c0 31.5-25.864 57.035-57.771 57.035-31.905 0-57.771-25.535-57.771-57.035s25.866-57.035 57.771-57.035c31.907 0 57.771 25.535 57.771 57.035zM155.542 470.561c0 31.5-25.864 57.035-57.771 57.035-31.906 0-57.771-25.535-57.771-57.035s25.866-57.035 57.771-57.035c31.907 0 57.771 25.535 57.771 57.035z" fill="#e65922" p-id="4132"></path></svg>