<?xml version="1.0" standalone="no"?><!DOCTYPE svg PUBLIC "-//W3C//DTD SVG 1.1//EN" "http://www.w3.org/Graphics/SVG/1.1/DTD/svg11.dtd"><svg t="1537378588517" class="icon" style="" viewBox="0 0 1180 1024" version="1.1" xmlns="http://www.w3.org/2000/svg" p-id="8269" xmlns:xlink="http://www.w3.org/1999/xlink" width="147.5" height="128"><defs><style type="text/css"></style></defs><path d="M733.6 810.4H251.2c3.2-5.6 4.8-12 3.2-18.4L160 470.4c-4-14.4-8-28-12.8-42.4l-6.4-20.8 1.6-0.8 144.8 87.2 15.2 8.8c14.4 8.8 29.6 17.6 44 26.4 11.2 7.2 24.8 9.6 38.4 6.4 12.8-3.2 23.2-12 28.8-24 44.8-80 89.6-161.6 133.6-240l30.4-54.4 11.2-19.2h8l42.4 76c43.2 77.6 86.4 154.4 128.8 232 6.4 13.6 18.4 24.8 32.8 29.6 3.2 0.8 7.2 1.6 10.4 1.6 11.2-0.8 22.4-4 32-11.2l98.4-59.2 93.6-56 6.4 3.2-46.4 158.4h-0.8L984 608h10.4c17.6 0 34.4 1.6 50.4 4.8l57.6-193.6c44.8-9.6 76.8-49.6 77.6-95.2 0-25.6-9.6-51.2-28-68.8-38.4-39.2-101.6-39.2-140.8-0.8-18.4 18.4-28.8 43.2-29.6 69.6 0 15.2 3.2 29.6 10.4 43.2l-174.4 105.6c-42.4-76-84.8-151.2-126.4-227.2L652 176c24-18.4 37.6-47.2 37.6-76.8C689.6 44.8 644.8 0 590.4 0S490.4 44.8 490.4 99.2c0 31.2 14.4 60 40 79.2L513.6 208l-20.8 37.6C451.2 320 408.8 396.8 366.4 472.8l-32.8-20.8-15.2-8.8-75.2-46.4-55.2-33.6c8-14.4 11.2-30.4 11.2-46.4-1.6-55.2-48-97.6-103.2-96C43.2 224 1.6 265.6 0 318.4c0 47.2 34.4 88 80.8 96.8L196.8 808c0.8 4 2.4 7.2 3.2 10.4 5.6 21.6 11.2 44 36 44h490.4c0-17.6 3.2-35.2 7.2-52z m348.8-525.6c21.6 0.8 38.4 17.6 38.4 39.2s-17.6 39.2-39.2 39.2v-0.8c-21.6-0.8-38.4-18.4-38.4-40 0-20.8 17.6-37.6 39.2-37.6z m-492-224c21.6 0 38.4 18.4 38.4 39.2 0 21.6-18.4 38.4-39.2 38.4-20.8 0-38.4-17.6-38.4-39.2 0-20.8 17.6-38.4 39.2-38.4zM128 345.6c-7.2 7.2-17.6 12-28.8 11.2-21.6 0-38.4-18.4-38.4-39.2s18.4-38.4 39.2-38.4c21.6 0 38.4 17.6 38.4 39.2 0.8 9.6-3.2 19.2-10.4 27.2zM664.8 960.8H291.2c-17.6 0-31.2 14.4-31.2 32s14.4 31.2 31.2 31.2H664c17.6 0 31.2-14.4 31.2-31.2s-13.6-32-30.4-32z" p-id="8270" fill="#f4ea29"></path><path d="M1154.4 853.6h-144.8v144.8c0 14.4-11.2 25.6-25.6 25.6-14.4 0-25.6-11.2-25.6-25.6v-144.8h-144.8c-14.4 0-25.6-11.2-25.6-25.6 0-14.4 11.2-25.6 25.6-25.6h144.8V656.8c0-14.4 11.2-25.6 25.6-25.6 14.4 0 25.6 11.2 25.6 25.6v144.8h144.8c14.4 0 25.6 11.2 25.6 25.6 0 14.4-12 26.4-25.6 26.4z" p-id="8271" fill="#f4ea29"></path></svg>