<?xml version="1.0" standalone="no"?><!DOCTYPE svg PUBLIC "-//W3C//DTD SVG 1.1//EN" "http://www.w3.org/Graphics/SVG/1.1/DTD/svg11.dtd"><svg t="1537349452345" class="icon" style="" viewBox="0 0 1024 1024" version="1.1" xmlns="http://www.w3.org/2000/svg" p-id="2837" xmlns:xlink="http://www.w3.org/1999/xlink" width="16" height="16"><defs><style type="text/css"></style></defs><path d="M752.3 402.9c-5.7 11.7-14.9 17.6-27.6 17.6h-91.3v410.8c0 4.4-1.4 8.1-4.3 10.9-2.9 2.9-6.5 4.3-10.9 4.3H283.5c-6.7 0-11.3-2.9-13.8-8.6-2.5-6.3-1.9-11.9 1.9-16.6l76.1-91.3c2.9-3.5 6.8-5.2 11.9-5.2h152.2V420.5h-91.3c-12.7 0-21.9-5.9-27.6-17.6-5.4-11.7-4-22.5 4.3-32.3L549.4 188c5.7-7 13.5-10.5 23.3-10.5S590.3 181 596 188l152.2 182.6c8.4 10.1 9.9 20.9 4.1 32.3z" p-id="2838"></path></svg>